# Blender 5.0.1
# www.blender.org
mtllib sergio.mtl
o Cube.003
v 0.570127 0.012698 2.229873
v 0.570127 1.587302 2.229873
v 0.570127 0.012698 1.770127
v 0.570127 1.587302 1.770127
v 1.029873 0.012698 2.229873
v 1.029873 1.587302 2.229873
v 1.029873 0.012698 1.770127
v 1.029873 1.587302 1.770127
v -0.570127 0.012698 2.229873
v -0.570127 1.587302 2.229873
v -0.570127 0.012698 1.770127
v -0.570127 1.587302 1.770127
v -1.029873 0.012698 2.229873
v -1.029873 1.587302 2.229873
v -1.029873 0.012698 1.770127
v -1.029873 1.587302 1.770127
v 1.000000 3.000000 -2.513700
v 1.000000 1.000000 -2.513700
v 1.000000 3.000000 2.513700
v 1.000000 1.000000 2.513700
v -1.000000 3.000000 -2.513700
v -1.000000 1.000000 -2.513700
v -1.000000 3.000000 2.513700
v -1.000000 1.000000 2.513700
v -1.000000 1.000000 2.513700
v -1.000000 3.000000 2.513700
v 1.000000 3.000000 2.513700
v 1.000000 1.000000 2.513700
v -1.000000 1.000000 2.513700
v -1.000000 3.000000 2.513700
v 1.000000 3.000000 2.513700
v 1.000000 1.000000 2.513700
v -1.000000 2.000000 -2.000000
v -1.000000 4.000000 -2.000000
v -1.000000 2.000000 -4.000000
v -1.000000 4.000000 -4.000000
v 1.000000 2.000000 -2.000000
v 1.000000 4.000000 -2.000000
v 1.000000 2.000000 -4.000000
v 1.000000 4.000000 -4.000000
v 0.570127 0.012698 -1.470126
v 0.570127 1.587302 -1.470126
v 0.570127 0.012698 -1.929873
v 0.570127 1.587302 -1.929873
v 1.029873 0.012698 -1.470126
v 1.029873 1.587302 -1.470126
v 1.029873 0.012698 -1.929873
v 1.029873 1.587302 -1.929873
v -0.570127 0.012698 -1.470126
v -0.570127 1.587302 -1.470126
v -0.570127 0.012698 -1.929873
v -0.570127 1.587302 -1.929873
v -1.029873 0.012698 -1.470126
v -1.029873 1.587302 -1.470126
v -1.029873 0.012698 -1.929873
v -1.029873 1.587302 -1.929873
vn -1.0000 -0.0000 -0.0000
vn -0.0000 -0.0000 -1.0000
vn 1.0000 -0.0000 -0.0000
vn -0.0000 -0.0000 1.0000
vn -0.0000 -1.0000 -0.0000
vn -0.0000 1.0000 -0.0000
vt 0.375000 0.000000
vt 0.625000 0.000000
vt 0.625000 0.250000
vt 0.375000 0.250000
vt 0.625000 0.500000
vt 0.375000 0.500000
vt 0.625000 0.750000
vt 0.375000 0.750000
vt 0.625000 1.000000
vt 0.375000 1.000000
vt 0.125000 0.500000
vt 0.125000 0.750000
vt 0.875000 0.500000
vt 0.875000 0.750000
s 0
usemtl 
f 1/1/1 2/2/1 4/3/1 3/4/1
f 3/4/2 4/3/2 8/5/2 7/6/2
f 7/6/3 8/5/3 6/7/3 5/8/3
f 5/8/4 6/7/4 2/9/4 1/10/4
f 3/11/5 7/6/5 5/8/5 1/12/5
f 8/5/6 4/13/6 2/14/6 6/7/6
f 9/1/3 11/4/3 12/3/3 10/2/3
f 11/4/2 15/6/2 16/5/2 12/3/2
f 15/6/1 13/8/1 14/7/1 16/5/1
f 13/8/4 9/10/4 10/9/4 14/7/4
f 11/11/5 9/12/5 13/8/5 15/6/5
f 16/5/6 14/7/6 10/14/6 12/13/6
f 33/1/1 34/2/1 36/3/1 35/4/1
f 35/4/2 36/3/2 40/5/2 39/6/2
f 39/6/3 40/5/3 38/7/3 37/8/3
f 37/8/4 38/7/4 34/9/4 33/10/4
f 35/11/5 39/6/5 37/8/5 33/12/5
f 40/5/6 36/13/6 34/14/6 38/7/6
f 41/1/1 42/2/1 44/3/1 43/4/1
f 43/4/2 44/3/2 48/5/2 47/6/2
f 47/6/3 48/5/3 46/7/3 45/8/3
f 45/8/4 46/7/4 42/9/4 41/10/4
f 43/11/5 47/6/5 45/8/5 41/12/5
f 48/5/6 44/13/6 42/14/6 46/7/6
f 49/1/3 51/4/3 52/3/3 50/2/3
f 51/4/2 55/6/2 56/5/2 52/3/2
f 55/6/1 53/8/1 54/7/1 56/5/1
f 53/8/4 49/10/4 50/9/4 54/7/4
f 51/11/5 49/12/5 53/8/5 55/6/5
f 56/5/6 54/7/6 50/14/6 52/13/6
usemtl Material
f 17/5/6 21/13/6 23/14/6 19/7/6
f 23/2/6 24/1/6 25/1/6 26/2/6
f 24/1/1 23/2/1 21/3/1 22/4/1
f 22/11/5 18/6/5 20/8/5 24/12/5
f 18/6/3 17/5/3 19/7/3 20/8/3
f 22/4/2 21/3/2 17/5/2 18/6/2
f 27/7/6 26/14/6 30/14/6 31/7/6
f 24/12/6 20/8/6 28/8/6 25/12/6
f 19/7/6 23/14/6 26/14/6 27/7/6
f 20/8/6 19/7/6 27/7/6 28/8/6
f 32/8/4 31/7/4 30/9/4 29/10/4
f 26/2/6 25/1/6 29/1/6 30/2/6
f 25/12/6 28/8/6 32/8/6 29/12/6
f 28/8/6 27/7/6 31/7/6 32/8/6
